<svg width="443" height="345" viewBox="0 0 443 345" fill="none" xmlns="http://www.w3.org/2000/svg">
<path d="M290.606 144.263C290.291 140.619 291.22 136.643 294.327 134.065C297.416 131.472 302.685 130.277 308.131 129.787C313.576 129.298 319.171 129.553 322.505 131.687C325.819 133.832 326.844 137.893 328.036 141.695C329.207 145.508 330.559 149.076 329.438 152.331C328.299 155.57 324.666 158.505 320.096 160.368C315.519 162.26 310.006 163.077 305.5 161.94C300.979 160.788 297.466 157.683 294.959 154.472C292.435 151.243 290.921 147.907 290.606 144.263Z" fill="#9093D1"/>
<path d="M73.5697 195.871C72.9408 188.582 74.7981 180.63 81.0101 175.475C87.1909 170.288 97.7263 167.898 108.617 166.92C119.507 165.941 130.699 166.451 137.368 170.718C143.995 175.008 146.044 183.132 148.428 190.735C150.769 198.36 153.476 205.498 151.233 212.007C148.957 218.485 141.688 224.356 132.547 228.083C123.395 231.863 112.37 233.498 103.359 231.226C94.3162 228.921 87.2873 222.711 82.2738 216.287C77.2285 209.831 74.1987 203.159 73.5697 195.871Z" fill="#F7859C"/>
<path d="M198.137 286.385C197.507 279.097 199.365 271.145 205.578 265.99C211.758 260.803 222.294 258.413 233.185 257.434C244.074 256.456 255.267 256.966 261.935 261.232C268.561 265.521 270.611 273.645 272.996 281.248C275.336 288.875 278.044 296.013 275.801 302.522C273.525 308.998 266.255 314.871 257.114 318.596C247.962 322.377 236.938 324.011 227.926 321.739C218.883 319.436 211.854 313.226 206.841 306.801C201.796 300.344 198.766 293.674 198.137 286.385Z" fill="#F7859C"/>
<path d="M137.177 85.6891C136.218 74.3071 139.149 61.8841 148.878 53.8211C158.558 45.7087 175.038 41.9564 192.068 40.4077C209.096 38.8591 226.592 39.6357 237.004 46.2875C247.348 52.9752 250.526 65.6594 254.227 77.5298C257.861 89.4362 262.07 100.578 258.539 110.748C254.961 120.868 243.577 130.053 229.273 135.889C214.952 141.811 197.71 144.384 183.629 140.852C169.5 137.27 158.532 127.584 150.716 117.559C142.85 107.484 138.135 97.0712 137.177 85.6891Z" fill="#9FD8E5"/>
<path d="M192.797 195.872C192.167 188.583 194.025 180.631 200.237 175.476C206.418 170.289 216.954 167.899 227.845 166.921C238.733 165.942 249.926 166.452 256.594 170.718C263.221 175.009 265.271 183.133 267.656 190.736C269.996 198.361 272.704 205.499 270.46 212.008C268.184 218.484 260.915 224.357 251.774 228.083C242.622 231.863 231.598 233.498 222.586 231.226C213.543 228.922 206.514 222.712 201.501 216.287C196.456 209.832 193.425 203.16 192.797 195.872Z" fill="#FFDBB4"/>
</svg>
