<svg width="1920" height="100" viewBox="0 0 1920 100" fill="none" xmlns="http://www.w3.org/2000/svg">
<g clip-path="url(#clip0_1_930)">
<path d="M-1588.24 -91L-1489.49 -73.0775C-1390.73 -55.825 -1193.22 -18.975 -995.715 25.0775C-798.204 69.8 -600.693 123.4 -403.184 123.4C-205.673 123.4 -8.16345 69.8 189.347 51.8775C386.857 34.625 584.367 51.375 781.877 69.8C979.388 88.225 1176.9 104.975 1374.41 78.6775C1571.92 51.375 1769.43 -18.975 1966.93 7.3225C2164.45 34.625 2361.96 158.575 2559.47 185.878C2756.97 212.175 2954.49 141.825 3053.24 105.477L3152 69.8V445H3053.24C2954.49 445 2756.97 445 2559.47 445C2361.96 445 2164.45 445 1966.93 445C1769.43 445 1571.92 445 1374.41 445C1176.9 445 979.388 445 781.877 445C584.367 445 386.857 445 189.347 445C-8.16345 445 -205.673 445 -403.184 445C-600.693 445 -798.204 445 -995.715 445C-1193.22 445 -1390.73 445 -1489.49 445H-1588.24V-91Z" fill="#D3D4ED"/>
<path d="M1958.29 99.627H-780V290.672H1958.29V99.627Z" fill="#D3D4ED"/>
<path d="M1870.67 99.2539H-48V177.985H1870.67V99.2539Z" fill="#D3D4ED"/>
</g>
<defs>
<clipPath id="clip0_1_930">
<rect width="1920" height="100" fill="white"/>
</clipPath>
</defs>
</svg>
