<svg width="1920" height="113" viewBox="0 0 1920 113" fill="none" xmlns="http://www.w3.org/2000/svg">
<g clip-path="url(#clip0_1_690)">
<path d="M-1540.24 -83L-1441.49 -65.0775C-1342.73 -47.825 -1145.22 -10.975 -947.715 33.0775C-750.204 77.8 -552.693 131.4 -355.184 131.4C-157.673 131.4 39.8369 77.8 237.347 59.8775C434.858 42.625 632.367 59.375 829.878 77.8C1027.39 96.225 1224.9 112.975 1422.41 86.6775C1619.92 59.375 1817.43 -10.975 2014.93 15.3225C2212.45 42.625 2409.96 166.575 2607.47 193.878C2804.97 220.175 3002.49 149.825 3101.24 113.477L3200 77.8V453H3101.24C3002.49 453 2804.97 453 2607.47 453C2409.96 453 2212.45 453 2014.93 453C1817.43 453 1619.92 453 1422.41 453C1224.9 453 1027.39 453 829.878 453C632.367 453 434.858 453 237.347 453C39.8369 453 -157.673 453 -355.184 453C-552.693 453 -750.204 453 -947.715 453C-1145.22 453 -1342.73 453 -1441.49 453H-1540.24V-83Z" fill="#FDDBE2"/>
<path d="M2006.29 112.578H-732V328.459H2006.29V112.578Z" fill="#FDDBE2"/>
</g>
<defs>
<clipPath id="clip0_1_690">
<rect width="1920" height="113" fill="white"/>
</clipPath>
</defs>
</svg>
